# xmcd
#
# Track frame offsets:
#	150
#	11430
#	27890
#	41999
#	57612
#	70534
#	88742
#	100002
#	115236
#	128930
#	141823
#	161792
#
# Disc length: 2354 seconds
#
# Revision: 1
# Processed by: cddbd v1.4PL0 Copyright (c) Steve Scherf et al.
# Submitted via: audiograbber 1.80.04
#
DISCID=a309300c
DTITLE=Pier Béland - Tout simplement country
DYEAR=2001
DGENRE=Country
TTITLE0=Y a plus rien à faire
TTITLE1=C'est pas normal
TTITLE2=Baby reviens-moi
TTITLE3=I just want to dance with you
TTITLE4=Tout simplement country
TTITLE5=T'envoler
TTITLE6=I've had it with Love
TTITLE7=Parce que je t'aime
TTITLE8=Tu m'as menti
TTITLE9=Je n'y crois plus
TTITLE10=Le dernier rendez-vous
TTITLE11=Boogie and Beethoven
EXTD=
EXTT0=durée 2:27
EXTT1=durée 3:36
EXTT2=durée - 3:05
EXTT3=durée - 3:25
EXTT4=durée - 2:49
EXTT5=durée - 4:00
EXTT6=version anglais de Y'a plus rien à faire\ndurée - 2:27
EXTT7=durée - 3:20
EXTT8=durée - 2:59
EXTT9=durée - 2:49
EXTT10=Chanson sur la maladie d'Alzheimer\ndurée: 4:24
EXTT11=durée:3:16
PLAYORDER=
